solid OpenSCAD_Model
  facet normal 0.99863 0.0523282 0
    outer loop
      vertex 2.2 0 2.8
      vertex 2.18795 0.229962 0
      vertex 2.18795 0.229962 2.8
    endloop
  endfacet
  facet normal 0.99863 0.0523282 0
    outer loop
      vertex 2.18795 0.229962 0
      vertex 2.2 0 2.8
      vertex 2.2 0 0
    endloop
  endfacet
  facet normal -0.99863 0.0523282 0
    outer loop
      vertex -2.2 0 0
      vertex -2.18795 0.229962 2.8
      vertex -2.18795 0.229962 0
    endloop
  endfacet
  facet normal -0.99863 0.0523282 0
    outer loop
      vertex -2.18795 0.229962 2.8
      vertex -2.2 0 0
      vertex -2.2 0 2.8
    endloop
  endfacet
  facet normal 0.0523282 0.99863 -0
    outer loop
      vertex 0.229962 2.18795 0
      vertex 0 2.2 2.8
      vertex 0.229962 2.18795 2.8
    endloop
  endfacet
  facet normal 0.0523282 0.99863 0
    outer loop
      vertex 0 2.2 2.8
      vertex 0.229962 2.18795 0
      vertex 0 2.2 0
    endloop
  endfacet
  facet normal 0.707107 0.707107 0
    outer loop
      vertex 1.63492 1.47209 2.8
      vertex 1.47209 1.63492 0
      vertex 1.47209 1.63492 2.8
    endloop
  endfacet
  facet normal 0.707107 0.707107 0
    outer loop
      vertex 1.47209 1.63492 0
      vertex 1.63492 1.47209 2.8
      vertex 1.63492 1.47209 0
    endloop
  endfacet
  facet normal -0.629323 0.777144 0
    outer loop
      vertex -1.29313 1.77984 0
      vertex -1.47209 1.63492 2.8
      vertex -1.29313 1.77984 2.8
    endloop
  endfacet
  facet normal -0.629323 0.777144 0
    outer loop
      vertex -1.47209 1.63492 2.8
      vertex -1.29313 1.77984 0
      vertex -1.47209 1.63492 0
    endloop
  endfacet
  facet normal -0.258817 0.965926 0
    outer loop
      vertex -0.457405 2.15192 0
      vertex -0.679837 2.09232 2.8
      vertex -0.457405 2.15192 2.8
    endloop
  endfacet
  facet normal -0.258817 0.965926 0
    outer loop
      vertex -0.679837 2.09232 2.8
      vertex -0.457405 2.15192 0
      vertex -0.679837 2.09232 0
    endloop
  endfacet
  facet normal 0.933587 0.358352 0
    outer loop
      vertex 2.09232 0.679837 2.8
      vertex 2.0098 0.89482 0
      vertex 2.0098 0.89482 2.8
    endloop
  endfacet
  facet normal 0.933587 0.358352 0
    outer loop
      vertex 2.0098 0.89482 0
      vertex 2.09232 0.679837 2.8
      vertex 2.09232 0.679837 0
    endloop
  endfacet
  facet normal 0.358352 0.933587 -0
    outer loop
      vertex 0.89482 2.0098 0
      vertex 0.679837 2.09232 2.8
      vertex 0.89482 2.0098 2.8
    endloop
  endfacet
  facet normal 0.358352 0.933587 0
    outer loop
      vertex 0.679837 2.09232 2.8
      vertex 0.89482 2.0098 0
      vertex 0.679837 2.09232 0
    endloop
  endfacet
  facet normal 0.258817 0.965926 -0
    outer loop
      vertex 0.679837 2.09232 0
      vertex 0.457405 2.15192 2.8
      vertex 0.679837 2.09232 2.8
    endloop
  endfacet
  facet normal 0.258817 0.965926 0
    outer loop
      vertex 0.457405 2.15192 2.8
      vertex 0.679837 2.09232 0
      vertex 0.457405 2.15192 0
    endloop
  endfacet
  facet normal 0.544639 0.838671 -0
    outer loop
      vertex 1.29313 1.77984 0
      vertex 1.1 1.90526 2.8
      vertex 1.29313 1.77984 2.8
    endloop
  endfacet
  facet normal 0.544639 0.838671 0
    outer loop
      vertex 1.1 1.90526 2.8
      vertex 1.29313 1.77984 0
      vertex 1.1 1.90526 0
    endloop
  endfacet
  facet normal -0.891014 0.453975 0
    outer loop
      vertex -2.0098 0.89482 0
      vertex -1.90526 1.1 2.8
      vertex -1.90526 1.1 0
    endloop
  endfacet
  facet normal -0.891014 0.453975 0
    outer loop
      vertex -1.90526 1.1 2.8
      vertex -2.0098 0.89482 0
      vertex -2.0098 0.89482 2.8
    endloop
  endfacet
  facet normal -0.156462 0.987684 0
    outer loop
      vertex -0.229962 2.18795 0
      vertex -0.457405 2.15192 2.8
      vertex -0.229962 2.18795 2.8
    endloop
  endfacet
  facet normal -0.156462 0.987684 0
    outer loop
      vertex -0.457405 2.15192 2.8
      vertex -0.229962 2.18795 0
      vertex -0.457405 2.15192 0
    endloop
  endfacet
  facet normal 0 0 -1
    outer loop
      vertex 2.18795 -0.229962 0
      vertex 2.18795 0.229962 0
      vertex 2.2 0 0
    endloop
  endfacet
  facet normal 0 0 -1
    outer loop
      vertex 2.15192 -0.457405 0
      vertex 2.18795 0.229962 0
      vertex 2.18795 -0.229962 0
    endloop
  endfacet
  facet normal 0 0 -1
    outer loop
      vertex 2.15192 -0.457405 0
      vertex 2.15192 0.457405 0
      vertex 2.18795 0.229962 0
    endloop
  endfacet
  facet normal 0 0 -1
    outer loop
      vertex 2.09232 -0.679837 0
      vertex 2.15192 0.457405 0
      vertex 2.15192 -0.457405 0
    endloop
  endfacet
  facet normal 0 0 -1
    outer loop
      vertex 2.09232 -0.679837 0
      vertex 2.09232 0.679837 0
      vertex 2.15192 0.457405 0
    endloop
  endfacet
  facet normal 0 0 -1
    outer loop
      vertex 2.0098 -0.89482 0
      vertex 2.09232 0.679837 0
      vertex 2.09232 -0.679837 0
    endloop
  endfacet
  facet normal 0 0 -1
    outer loop
      vertex 2.0098 -0.89482 0
      vertex 2.0098 0.89482 0
      vertex 2.09232 0.679837 0
    endloop
  endfacet
  facet normal 0 0 -1
    outer loop
      vertex 1.90526 -1.1 0
      vertex 2.0098 0.89482 0
      vertex 2.0098 -0.89482 0
    endloop
  endfacet
  facet normal 0 0 -1
    outer loop
      vertex 1.90526 -1.1 0
      vertex 1.90526 1.1 0
      vertex 2.0098 0.89482 0
    endloop
  endfacet
  facet normal 0 0 -1
    outer loop
      vertex 1.77984 -1.29313 0
      vertex 1.90526 1.1 0
      vertex 1.90526 -1.1 0
    endloop
  endfacet
  facet normal 0 0 -1
    outer loop
      vertex 1.77984 -1.29313 0
      vertex 1.77984 1.29313 0
      vertex 1.90526 1.1 0
    endloop
  endfacet
  facet normal 0 0 -1
    outer loop
      vertex 1.63492 -1.47209 0
      vertex 1.77984 1.29313 0
      vertex 1.77984 -1.29313 0
    endloop
  endfacet
  facet normal 0 0 -1
    outer loop
      vertex 1.63492 -1.47209 0
      vertex 1.63492 1.47209 0
      vertex 1.77984 1.29313 0
    endloop
  endfacet
  facet normal 0 0 -1
    outer loop
      vertex 1.47209 -1.63492 0
      vertex 1.63492 1.47209 0
      vertex 1.63492 -1.47209 0
    endloop
  endfacet
  facet normal 0 0 -1
    outer loop
      vertex 1.47209 -1.63492 0
      vertex 1.47209 1.63492 0
      vertex 1.63492 1.47209 0
    endloop
  endfacet
  facet normal 0 0 -1
    outer loop
      vertex 1.29313 -1.77984 0
      vertex 1.47209 1.63492 0
      vertex 1.47209 -1.63492 0
    endloop
  endfacet
  facet normal 0 0 -1
    outer loop
      vertex 1.29313 -1.77984 0
      vertex 1.29313 1.77984 0
      vertex 1.47209 1.63492 0
    endloop
  endfacet
  facet normal 0 0 -1
    outer loop
      vertex 1.1 -1.90526 0
      vertex 1.29313 1.77984 0
      vertex 1.29313 -1.77984 0
    endloop
  endfacet
  facet normal 0 0 -1
    outer loop
      vertex 1.1 -1.90526 0
      vertex 1.1 1.90526 0
      vertex 1.29313 1.77984 0
    endloop
  endfacet
  facet normal 0 0 -1
    outer loop
      vertex 0.89482 -2.0098 0
      vertex 1.1 1.90526 0
      vertex 1.1 -1.90526 0
    endloop
  endfacet
  facet normal 0 0 -1
    outer loop
      vertex 0.89482 -2.0098 0
      vertex 0.89482 2.0098 0
      vertex 1.1 1.90526 0
    endloop
  endfacet
  facet normal 0 0 -1
    outer loop
      vertex 0.679837 -2.09232 0
      vertex 0.89482 2.0098 0
      vertex 0.89482 -2.0098 0
    endloop
  endfacet
  facet normal 0 0 -1
    outer loop
      vertex 0.679837 -2.09232 0
      vertex 0.679837 2.09232 0
      vertex 0.89482 2.0098 0
    endloop
  endfacet
  facet normal 0 0 -1
    outer loop
      vertex 0.457405 -2.15192 0
      vertex 0.679837 2.09232 0
      vertex 0.679837 -2.09232 0
    endloop
  endfacet
  facet normal 0 0 -1
    outer loop
      vertex 0.457405 -2.15192 0
      vertex 0.457405 2.15192 0
      vertex 0.679837 2.09232 0
    endloop
  endfacet
  facet normal 0 0 -1
    outer loop
      vertex 0.229962 -2.18795 0
      vertex 0.457405 2.15192 0
      vertex 0.457405 -2.15192 0
    endloop
  endfacet
  facet normal 0 0 -1
    outer loop
      vertex 0.229962 -2.18795 0
      vertex 0.229962 2.18795 0
      vertex 0.457405 2.15192 0
    endloop
  endfacet
  facet normal 0 0 -1
    outer loop
      vertex 0 -2.2 0
      vertex 0.229962 2.18795 0
      vertex 0.229962 -2.18795 0
    endloop
  endfacet
  facet normal 0 0 -1
    outer loop
      vertex 0 -2.2 0
      vertex 0 2.2 0
      vertex 0.229962 2.18795 0
    endloop
  endfacet
  facet normal 0 0 -1
    outer loop
      vertex -0.229962 -2.18795 0
      vertex 0 2.2 0
      vertex 0 -2.2 0
    endloop
  endfacet
  facet normal 0 0 -1
    outer loop
      vertex -0.229962 -2.18795 0
      vertex -0.229962 2.18795 0
      vertex 0 2.2 0
    endloop
  endfacet
  facet normal 0 0 -1
    outer loop
      vertex -0.457405 -2.15192 0
      vertex -0.229962 2.18795 0
      vertex -0.229962 -2.18795 0
    endloop
  endfacet
  facet normal 0 0 -1
    outer loop
      vertex -0.457405 -2.15192 0
      vertex -0.457405 2.15192 0
      vertex -0.229962 2.18795 0
    endloop
  endfacet
  facet normal 0 0 -1
    outer loop
      vertex -0.679837 -2.09232 0
      vertex -0.457405 2.15192 0
      vertex -0.457405 -2.15192 0
    endloop
  endfacet
  facet normal 0 0 -1
    outer loop
      vertex -0.679837 -2.09232 0
      vertex -0.679837 2.09232 0
      vertex -0.457405 2.15192 0
    endloop
  endfacet
  facet normal 0 0 -1
    outer loop
      vertex -0.89482 -2.0098 0
      vertex -0.679837 2.09232 0
      vertex -0.679837 -2.09232 0
    endloop
  endfacet
  facet normal 0 0 -1
    outer loop
      vertex -0.89482 -2.0098 0
      vertex -0.89482 2.0098 0
      vertex -0.679837 2.09232 0
    endloop
  endfacet
  facet normal 0 0 -1
    outer loop
      vertex -1.1 -1.90526 0
      vertex -0.89482 2.0098 0
      vertex -0.89482 -2.0098 0
    endloop
  endfacet
  facet normal 0 0 -1
    outer loop
      vertex -1.1 -1.90526 0
      vertex -1.1 1.90526 0
      vertex -0.89482 2.0098 0
    endloop
  endfacet
  facet normal 0 0 -1
    outer loop
      vertex -1.29313 -1.77984 0
      vertex -1.1 1.90526 0
      vertex -1.1 -1.90526 0
    endloop
  endfacet
  facet normal 0 0 -1
    outer loop
      vertex -1.29313 -1.77984 0
      vertex -1.29313 1.77984 0
      vertex -1.1 1.90526 0
    endloop
  endfacet
  facet normal 0 0 -1
    outer loop
      vertex -1.47209 -1.63492 0
      vertex -1.29313 1.77984 0
      vertex -1.29313 -1.77984 0
    endloop
  endfacet
  facet normal 0 0 -1
    outer loop
      vertex -1.47209 -1.63492 0
      vertex -1.47209 1.63492 0
      vertex -1.29313 1.77984 0
    endloop
  endfacet
  facet normal 0 0 -1
    outer loop
      vertex -1.63492 -1.47209 0
      vertex -1.47209 1.63492 0
      vertex -1.47209 -1.63492 0
    endloop
  endfacet
  facet normal 0 0 -1
    outer loop
      vertex -1.63492 -1.47209 0
      vertex -1.63492 1.47209 0
      vertex -1.47209 1.63492 0
    endloop
  endfacet
  facet normal 0 0 -1
    outer loop
      vertex -1.77984 -1.29313 0
      vertex -1.63492 1.47209 0
      vertex -1.63492 -1.47209 0
    endloop
  endfacet
  facet normal 0 0 -1
    outer loop
      vertex -1.77984 -1.29313 0
      vertex -1.77984 1.29313 0
      vertex -1.63492 1.47209 0
    endloop
  endfacet
  facet normal 0 0 -1
    outer loop
      vertex -1.90526 -1.1 0
      vertex -1.77984 1.29313 0
      vertex -1.77984 -1.29313 0
    endloop
  endfacet
  facet normal 0 0 -1
    outer loop
      vertex -1.90526 -1.1 0
      vertex -1.90526 1.1 0
      vertex -1.77984 1.29313 0
    endloop
  endfacet
  facet normal 0 0 -1
    outer loop
      vertex -2.0098 -0.89482 0
      vertex -1.90526 1.1 0
      vertex -1.90526 -1.1 0
    endloop
  endfacet
  facet normal 0 0 -1
    outer loop
      vertex -2.0098 -0.89482 0
      vertex -2.0098 0.89482 0
      vertex -1.90526 1.1 0
    endloop
  endfacet
  facet normal 0 0 -1
    outer loop
      vertex -2.09232 -0.679837 0
      vertex -2.0098 0.89482 0
      vertex -2.0098 -0.89482 0
    endloop
  endfacet
  facet normal 0 0 -1
    outer loop
      vertex -2.09232 -0.679837 0
      vertex -2.09232 0.679837 0
      vertex -2.0098 0.89482 0
    endloop
  endfacet
  facet normal 0 0 -1
    outer loop
      vertex -2.15192 -0.457405 0
      vertex -2.09232 0.679837 0
      vertex -2.09232 -0.679837 0
    endloop
  endfacet
  facet normal 0 0 -1
    outer loop
      vertex -2.15192 -0.457405 0
      vertex -2.15192 0.457405 0
      vertex -2.09232 0.679837 0
    endloop
  endfacet
  facet normal 0 0 -1
    outer loop
      vertex -2.18795 -0.229962 0
      vertex -2.15192 0.457405 0
      vertex -2.15192 -0.457405 0
    endloop
  endfacet
  facet normal 0 0 -1
    outer loop
      vertex -2.18795 -0.229962 0
      vertex -2.18795 0.229962 0
      vertex -2.15192 0.457405 0
    endloop
  endfacet
  facet normal 0 -0 -1
    outer loop
      vertex -2.18795 0.229962 0
      vertex -2.18795 -0.229962 0
      vertex -2.2 0 0
    endloop
  endfacet
  facet normal 0.965926 0.258817 0
    outer loop
      vertex 2.15192 0.457405 2.8
      vertex 2.09232 0.679837 0
      vertex 2.09232 0.679837 2.8
    endloop
  endfacet
  facet normal 0.965926 0.258817 0
    outer loop
      vertex 2.09232 0.679837 0
      vertex 2.15192 0.457405 2.8
      vertex 2.15192 0.457405 0
    endloop
  endfacet
  facet normal 0.987684 0.156462 0
    outer loop
      vertex 2.18795 0.229962 2.8
      vertex 2.15192 0.457405 0
      vertex 2.15192 0.457405 2.8
    endloop
  endfacet
  facet normal 0.987684 0.156462 0
    outer loop
      vertex 2.15192 0.457405 0
      vertex 2.18795 0.229962 2.8
      vertex 2.18795 0.229962 0
    endloop
  endfacet
  facet normal 0.838671 0.544639 0
    outer loop
      vertex 1.90526 1.1 2.8
      vertex 1.77984 1.29313 0
      vertex 1.77984 1.29313 2.8
    endloop
  endfacet
  facet normal 0.838671 0.544639 0
    outer loop
      vertex 1.77984 1.29313 0
      vertex 1.90526 1.1 2.8
      vertex 1.90526 1.1 0
    endloop
  endfacet
  facet normal 0.777144 0.629323 0
    outer loop
      vertex 1.77984 1.29313 2.8
      vertex 1.63492 1.47209 0
      vertex 1.63492 1.47209 2.8
    endloop
  endfacet
  facet normal 0.777144 0.629323 0
    outer loop
      vertex 1.63492 1.47209 0
      vertex 1.77984 1.29313 2.8
      vertex 1.77984 1.29313 0
    endloop
  endfacet
  facet normal 0.891014 0.453975 0
    outer loop
      vertex 2.0098 0.89482 2.8
      vertex 1.90526 1.1 0
      vertex 1.90526 1.1 2.8
    endloop
  endfacet
  facet normal 0.891014 0.453975 0
    outer loop
      vertex 1.90526 1.1 0
      vertex 2.0098 0.89482 2.8
      vertex 2.0098 0.89482 0
    endloop
  endfacet
  facet normal 0.156462 0.987684 -0
    outer loop
      vertex 0.457405 2.15192 0
      vertex 0.229962 2.18795 2.8
      vertex 0.457405 2.15192 2.8
    endloop
  endfacet
  facet normal 0.156462 0.987684 0
    outer loop
      vertex 0.229962 2.18795 2.8
      vertex 0.457405 2.15192 0
      vertex 0.229962 2.18795 0
    endloop
  endfacet
  facet normal 0.453975 0.891014 -0
    outer loop
      vertex 1.1 1.90526 0
      vertex 0.89482 2.0098 2.8
      vertex 1.1 1.90526 2.8
    endloop
  endfacet
  facet normal 0.453975 0.891014 0
    outer loop
      vertex 0.89482 2.0098 2.8
      vertex 1.1 1.90526 0
      vertex 0.89482 2.0098 0
    endloop
  endfacet
  facet normal 0.629323 0.777144 -0
    outer loop
      vertex 1.47209 1.63492 0
      vertex 1.29313 1.77984 2.8
      vertex 1.47209 1.63492 2.8
    endloop
  endfacet
  facet normal 0.629323 0.777144 0
    outer loop
      vertex 1.29313 1.77984 2.8
      vertex 1.47209 1.63492 0
      vertex 1.29313 1.77984 0
    endloop
  endfacet
  facet normal -0.965926 0.258817 0
    outer loop
      vertex -2.15192 0.457405 0
      vertex -2.09232 0.679837 2.8
      vertex -2.09232 0.679837 0
    endloop
  endfacet
  facet normal -0.965926 0.258817 0
    outer loop
      vertex -2.09232 0.679837 2.8
      vertex -2.15192 0.457405 0
      vertex -2.15192 0.457405 2.8
    endloop
  endfacet
  facet normal -0.777144 0.629323 0
    outer loop
      vertex -1.77984 1.29313 0
      vertex -1.63492 1.47209 2.8
      vertex -1.63492 1.47209 0
    endloop
  endfacet
  facet normal -0.777144 0.629323 0
    outer loop
      vertex -1.63492 1.47209 2.8
      vertex -1.77984 1.29313 0
      vertex -1.77984 1.29313 2.8
    endloop
  endfacet
  facet normal -0.707107 0.707107 0
    outer loop
      vertex -1.63492 1.47209 0
      vertex -1.47209 1.63492 2.8
      vertex -1.47209 1.63492 0
    endloop
  endfacet
  facet normal -0.707107 0.707107 0
    outer loop
      vertex -1.47209 1.63492 2.8
      vertex -1.63492 1.47209 0
      vertex -1.63492 1.47209 2.8
    endloop
  endfacet
  facet normal -0.838671 0.544639 0
    outer loop
      vertex -1.90526 1.1 0
      vertex -1.77984 1.29313 2.8
      vertex -1.77984 1.29313 0
    endloop
  endfacet
  facet normal -0.838671 0.544639 0
    outer loop
      vertex -1.77984 1.29313 2.8
      vertex -1.90526 1.1 0
      vertex -1.90526 1.1 2.8
    endloop
  endfacet
  facet normal -0.933587 0.358352 0
    outer loop
      vertex -2.09232 0.679837 0
      vertex -2.0098 0.89482 2.8
      vertex -2.0098 0.89482 0
    endloop
  endfacet
  facet normal -0.933587 0.358352 0
    outer loop
      vertex -2.0098 0.89482 2.8
      vertex -2.09232 0.679837 0
      vertex -2.09232 0.679837 2.8
    endloop
  endfacet
  facet normal -0.987684 0.156462 0
    outer loop
      vertex -2.18795 0.229962 0
      vertex -2.15192 0.457405 2.8
      vertex -2.15192 0.457405 0
    endloop
  endfacet
  facet normal -0.987684 0.156462 0
    outer loop
      vertex -2.15192 0.457405 2.8
      vertex -2.18795 0.229962 0
      vertex -2.18795 0.229962 2.8
    endloop
  endfacet
  facet normal 0 0 1
    outer loop
      vertex 1.4 0 2.8
      vertex 2.2 0 2.8
      vertex 2.18795 0.229962 2.8
    endloop
  endfacet
  facet normal 0 0 1
    outer loop
      vertex 1.39233 0.146339 2.8
      vertex 2.18795 0.229962 2.8
      vertex 2.15192 0.457405 2.8
    endloop
  endfacet
  facet normal 0 0 1
    outer loop
      vertex 2.2 0 2.8
      vertex 1.4 0 2.8
      vertex 2.18795 -0.229962 2.8
    endloop
  endfacet
  facet normal 0 0 1
    outer loop
      vertex 1.36941 0.291076 2.8
      vertex 2.15192 0.457405 2.8
      vertex 2.09232 0.679837 2.8
    endloop
  endfacet
  facet normal -0 0 1
    outer loop
      vertex 1.39233 -0.146339 2.8
      vertex 2.18795 -0.229962 2.8
      vertex 1.4 0 2.8
    endloop
  endfacet
  facet normal 0 0 1
    outer loop
      vertex 1.33148 0.432623 2.8
      vertex 2.09232 0.679837 2.8
      vertex 2.0098 0.89482 2.8
    endloop
  endfacet
  facet normal 0 0 1
    outer loop
      vertex 2.18795 -0.229962 2.8
      vertex 1.39233 -0.146339 2.8
      vertex 2.15192 -0.457405 2.8
    endloop
  endfacet
  facet normal 0 0 1
    outer loop
      vertex 1.27896 0.56943 2.8
      vertex 2.0098 0.89482 2.8
      vertex 1.90526 1.1 2.8
    endloop
  endfacet
  facet normal -0 0 1
    outer loop
      vertex 1.36941 -0.291076 2.8
      vertex 2.15192 -0.457405 2.8
      vertex 1.39233 -0.146339 2.8
    endloop
  endfacet
  facet normal 0 0 1
    outer loop
      vertex 1.21243 0.7 2.8
      vertex 1.90526 1.1 2.8
      vertex 1.77984 1.29313 2.8
    endloop
  endfacet
  facet normal 0 0 1
    outer loop
      vertex 2.15192 -0.457405 2.8
      vertex 1.36941 -0.291076 2.8
      vertex 2.09232 -0.679837 2.8
    endloop
  endfacet
  facet normal 0 0 1
    outer loop
      vertex 1.13262 0.822899 2.8
      vertex 1.77984 1.29313 2.8
      vertex 1.63492 1.47209 2.8
    endloop
  endfacet
  facet normal -0 0 1
    outer loop
      vertex 1.33148 -0.432623 2.8
      vertex 2.09232 -0.679837 2.8
      vertex 1.36941 -0.291076 2.8
    endloop
  endfacet
  facet normal 0 0 1
    outer loop
      vertex 1.0404 0.936783 2.8
      vertex 1.63492 1.47209 2.8
      vertex 1.47209 1.63492 2.8
    endloop
  endfacet
  facet normal 0 0 1
    outer loop
      vertex 2.09232 -0.679837 2.8
      vertex 1.33148 -0.432623 2.8
      vertex 2.0098 -0.89482 2.8
    endloop
  endfacet
  facet normal -0 0 1
    outer loop
      vertex 1.27896 -0.56943 2.8
      vertex 2.0098 -0.89482 2.8
      vertex 1.33148 -0.432623 2.8
    endloop
  endfacet
  facet normal 0 0 1
    outer loop
      vertex 2.18795 0.229962 2.8
      vertex 1.39233 0.146339 2.8
      vertex 1.4 0 2.8
    endloop
  endfacet
  facet normal 0 0 1
    outer loop
      vertex 2.15192 0.457405 2.8
      vertex 1.36941 0.291076 2.8
      vertex 1.39233 0.146339 2.8
    endloop
  endfacet
  facet normal 0 0 1
    outer loop
      vertex 2.09232 0.679837 2.8
      vertex 1.33148 0.432623 2.8
      vertex 1.36941 0.291076 2.8
    endloop
  endfacet
  facet normal 0 0 1
    outer loop
      vertex 0.936783 1.0404 2.8
      vertex 1.47209 1.63492 2.8
      vertex 1.29313 1.77984 2.8
    endloop
  endfacet
  facet normal 0 0 1
    outer loop
      vertex 2.0098 0.89482 2.8
      vertex 1.27896 0.56943 2.8
      vertex 1.33148 0.432623 2.8
    endloop
  endfacet
  facet normal 0 0 1
    outer loop
      vertex 1.90526 1.1 2.8
      vertex 1.21243 0.7 2.8
      vertex 1.27896 0.56943 2.8
    endloop
  endfacet
  facet normal 0 0 1
    outer loop
      vertex 1.77984 1.29313 2.8
      vertex 1.13262 0.822899 2.8
      vertex 1.21243 0.7 2.8
    endloop
  endfacet
  facet normal 0 0 1
    outer loop
      vertex 0.822899 1.13262 2.8
      vertex 1.29313 1.77984 2.8
      vertex 1.1 1.90526 2.8
    endloop
  endfacet
  facet normal 0 0 1
    outer loop
      vertex 1.63492 1.47209 2.8
      vertex 1.0404 0.936783 2.8
      vertex 1.13262 0.822899 2.8
    endloop
  endfacet
  facet normal 0 0 1
    outer loop
      vertex 1.47209 1.63492 2.8
      vertex 0.936783 1.0404 2.8
      vertex 1.0404 0.936783 2.8
    endloop
  endfacet
  facet normal 0 0 1
    outer loop
      vertex 0.7 1.21243 2.8
      vertex 1.1 1.90526 2.8
      vertex 0.89482 2.0098 2.8
    endloop
  endfacet
  facet normal 0 0 1
    outer loop
      vertex 1.29313 1.77984 2.8
      vertex 0.822899 1.13262 2.8
      vertex 0.936783 1.0404 2.8
    endloop
  endfacet
  facet normal 0 0 1
    outer loop
      vertex 1.1 1.90526 2.8
      vertex 0.7 1.21243 2.8
      vertex 0.822899 1.13262 2.8
    endloop
  endfacet
  facet normal 0 0 1
    outer loop
      vertex 0.56943 1.27896 2.8
      vertex 0.89482 2.0098 2.8
      vertex 0.679837 2.09232 2.8
    endloop
  endfacet
  facet normal 0 0 1
    outer loop
      vertex 0.89482 2.0098 2.8
      vertex 0.56943 1.27896 2.8
      vertex 0.7 1.21243 2.8
    endloop
  endfacet
  facet normal 0 0 1
    outer loop
      vertex 0.432623 1.33148 2.8
      vertex 0.679837 2.09232 2.8
      vertex 0.457405 2.15192 2.8
    endloop
  endfacet
  facet normal 0 0 1
    outer loop
      vertex 0.679837 2.09232 2.8
      vertex 0.432623 1.33148 2.8
      vertex 0.56943 1.27896 2.8
    endloop
  endfacet
  facet normal 0 0 1
    outer loop
      vertex 0.457405 2.15192 2.8
      vertex 0.291076 1.36941 2.8
      vertex 0.432623 1.33148 2.8
    endloop
  endfacet
  facet normal 0 0 1
    outer loop
      vertex 0.229962 2.18795 2.8
      vertex 0.291076 1.36941 2.8
      vertex 0.457405 2.15192 2.8
    endloop
  endfacet
  facet normal 0 0 1
    outer loop
      vertex 0.229962 2.18795 2.8
      vertex 0.146339 1.39233 2.8
      vertex 0.291076 1.36941 2.8
    endloop
  endfacet
  facet normal 0 0 1
    outer loop
      vertex 0 2.2 2.8
      vertex 0.146339 1.39233 2.8
      vertex 0.229962 2.18795 2.8
    endloop
  endfacet
  facet normal 0 0 1
    outer loop
      vertex 0 2.2 2.8
      vertex 0 1.4 2.8
      vertex 0.146339 1.39233 2.8
    endloop
  endfacet
  facet normal 0 0 1
    outer loop
      vertex 0 2.2 2.8
      vertex -0.146339 1.39233 2.8
      vertex 0 1.4 2.8
    endloop
  endfacet
  facet normal -0 0 1
    outer loop
      vertex -0.229962 2.18795 2.8
      vertex -0.146339 1.39233 2.8
      vertex 0 2.2 2.8
    endloop
  endfacet
  facet normal 0 0 1
    outer loop
      vertex -0.229962 2.18795 2.8
      vertex -0.291076 1.36941 2.8
      vertex -0.146339 1.39233 2.8
    endloop
  endfacet
  facet normal -0 0 1
    outer loop
      vertex -0.457405 2.15192 2.8
      vertex -0.291076 1.36941 2.8
      vertex -0.229962 2.18795 2.8
    endloop
  endfacet
  facet normal 0 0 1
    outer loop
      vertex -0.291076 1.36941 2.8
      vertex -0.457405 2.15192 2.8
      vertex -0.432623 1.33148 2.8
    endloop
  endfacet
  facet normal -0 0 1
    outer loop
      vertex -0.679837 2.09232 2.8
      vertex -0.432623 1.33148 2.8
      vertex -0.457405 2.15192 2.8
    endloop
  endfacet
  facet normal 0 0 1
    outer loop
      vertex -0.432623 1.33148 2.8
      vertex -0.679837 2.09232 2.8
      vertex -0.56943 1.27896 2.8
    endloop
  endfacet
  facet normal -0 0 1
    outer loop
      vertex -0.89482 2.0098 2.8
      vertex -0.56943 1.27896 2.8
      vertex -0.679837 2.09232 2.8
    endloop
  endfacet
  facet normal 0 0 1
    outer loop
      vertex -0.56943 1.27896 2.8
      vertex -0.89482 2.0098 2.8
      vertex -0.7 1.21243 2.8
    endloop
  endfacet
  facet normal -0 0 1
    outer loop
      vertex -1.1 1.90526 2.8
      vertex -0.7 1.21243 2.8
      vertex -0.89482 2.0098 2.8
    endloop
  endfacet
  facet normal 0 0 1
    outer loop
      vertex -0.7 1.21243 2.8
      vertex -1.1 1.90526 2.8
      vertex -0.822899 1.13262 2.8
    endloop
  endfacet
  facet normal -0 0 1
    outer loop
      vertex -1.29313 1.77984 2.8
      vertex -0.822899 1.13262 2.8
      vertex -1.1 1.90526 2.8
    endloop
  endfacet
  facet normal 0 0 1
    outer loop
      vertex -0.822899 1.13262 2.8
      vertex -1.29313 1.77984 2.8
      vertex -0.936783 1.0404 2.8
    endloop
  endfacet
  facet normal -0 0 1
    outer loop
      vertex -1.47209 1.63492 2.8
      vertex -0.936783 1.0404 2.8
      vertex -1.29313 1.77984 2.8
    endloop
  endfacet
  facet normal 0 0 1
    outer loop
      vertex -0.936783 1.0404 2.8
      vertex -1.47209 1.63492 2.8
      vertex -1.0404 0.936783 2.8
    endloop
  endfacet
  facet normal -0 0 1
    outer loop
      vertex -1.63492 1.47209 2.8
      vertex -1.0404 0.936783 2.8
      vertex -1.47209 1.63492 2.8
    endloop
  endfacet
  facet normal 0 0 1
    outer loop
      vertex -1.0404 0.936783 2.8
      vertex -1.63492 1.47209 2.8
      vertex -1.13262 0.822899 2.8
    endloop
  endfacet
  facet normal -0 0 1
    outer loop
      vertex -1.77984 1.29313 2.8
      vertex -1.13262 0.822899 2.8
      vertex -1.63492 1.47209 2.8
    endloop
  endfacet
  facet normal 0 0 1
    outer loop
      vertex -1.13262 0.822899 2.8
      vertex -1.77984 1.29313 2.8
      vertex -1.21243 0.7 2.8
    endloop
  endfacet
  facet normal -0 0 1
    outer loop
      vertex -1.90526 1.1 2.8
      vertex -1.21243 0.7 2.8
      vertex -1.77984 1.29313 2.8
    endloop
  endfacet
  facet normal -0 0 1
    outer loop
      vertex -2.0098 0.89482 2.8
      vertex -1.27896 0.56943 2.8
      vertex -1.90526 1.1 2.8
    endloop
  endfacet
  facet normal 0 0 1
    outer loop
      vertex -1.21243 0.7 2.8
      vertex -1.90526 1.1 2.8
      vertex -1.27896 0.56943 2.8
    endloop
  endfacet
  facet normal 0 0 1
    outer loop
      vertex 2.0098 -0.89482 2.8
      vertex 1.27896 -0.56943 2.8
      vertex 1.90526 -1.1 2.8
    endloop
  endfacet
  facet normal -0 0 1
    outer loop
      vertex 1.21243 -0.7 2.8
      vertex 1.90526 -1.1 2.8
      vertex 1.27896 -0.56943 2.8
    endloop
  endfacet
  facet normal 0 0 1
    outer loop
      vertex 1.90526 -1.1 2.8
      vertex 1.21243 -0.7 2.8
      vertex 1.77984 -1.29313 2.8
    endloop
  endfacet
  facet normal -0 0 1
    outer loop
      vertex 1.13262 -0.822899 2.8
      vertex 1.77984 -1.29313 2.8
      vertex 1.21243 -0.7 2.8
    endloop
  endfacet
  facet normal 0 0 1
    outer loop
      vertex 1.77984 -1.29313 2.8
      vertex 1.13262 -0.822899 2.8
      vertex 1.63492 -1.47209 2.8
    endloop
  endfacet
  facet normal -0 0 1
    outer loop
      vertex 1.0404 -0.936783 2.8
      vertex 1.63492 -1.47209 2.8
      vertex 1.13262 -0.822899 2.8
    endloop
  endfacet
  facet normal 0 0 1
    outer loop
      vertex 1.63492 -1.47209 2.8
      vertex 1.0404 -0.936783 2.8
      vertex 1.47209 -1.63492 2.8
    endloop
  endfacet
  facet normal -0 0 1
    outer loop
      vertex 0.936783 -1.0404 2.8
      vertex 1.47209 -1.63492 2.8
      vertex 1.0404 -0.936783 2.8
    endloop
  endfacet
  facet normal 0 0 1
    outer loop
      vertex 1.47209 -1.63492 2.8
      vertex 0.936783 -1.0404 2.8
      vertex 1.29313 -1.77984 2.8
    endloop
  endfacet
  facet normal -0 0 1
    outer loop
      vertex 0.822899 -1.13262 2.8
      vertex 1.29313 -1.77984 2.8
      vertex 0.936783 -1.0404 2.8
    endloop
  endfacet
  facet normal 0 0 1
    outer loop
      vertex 1.29313 -1.77984 2.8
      vertex 0.822899 -1.13262 2.8
      vertex 1.1 -1.90526 2.8
    endloop
  endfacet
  facet normal -0 0 1
    outer loop
      vertex 0.7 -1.21243 2.8
      vertex 1.1 -1.90526 2.8
      vertex 0.822899 -1.13262 2.8
    endloop
  endfacet
  facet normal 0 0 1
    outer loop
      vertex 1.1 -1.90526 2.8
      vertex 0.7 -1.21243 2.8
      vertex 0.89482 -2.0098 2.8
    endloop
  endfacet
  facet normal -0 0 1
    outer loop
      vertex 0.56943 -1.27896 2.8
      vertex 0.89482 -2.0098 2.8
      vertex 0.7 -1.21243 2.8
    endloop
  endfacet
  facet normal 0 0 1
    outer loop
      vertex 0.89482 -2.0098 2.8
      vertex 0.56943 -1.27896 2.8
      vertex 0.679837 -2.09232 2.8
    endloop
  endfacet
  facet normal -0 0 1
    outer loop
      vertex 0.432623 -1.33148 2.8
      vertex 0.679837 -2.09232 2.8
      vertex 0.56943 -1.27896 2.8
    endloop
  endfacet
  facet normal 0 0 1
    outer loop
      vertex 0.679837 -2.09232 2.8
      vertex 0.432623 -1.33148 2.8
      vertex 0.457405 -2.15192 2.8
    endloop
  endfacet
  facet normal -0 0 1
    outer loop
      vertex 0.291076 -1.36941 2.8
      vertex 0.457405 -2.15192 2.8
      vertex 0.432623 -1.33148 2.8
    endloop
  endfacet
  facet normal 0 0 1
    outer loop
      vertex 0.291076 -1.36941 2.8
      vertex 0.229962 -2.18795 2.8
      vertex 0.457405 -2.15192 2.8
    endloop
  endfacet
  facet normal -0 0 1
    outer loop
      vertex 0.146339 -1.39233 2.8
      vertex 0.229962 -2.18795 2.8
      vertex 0.291076 -1.36941 2.8
    endloop
  endfacet
  facet normal -0 0 1
    outer loop
      vertex 0 -1.4 2.8
      vertex 0.229962 -2.18795 2.8
      vertex 0.146339 -1.39233 2.8
    endloop
  endfacet
  facet normal 0 0 1
    outer loop
      vertex 0 -1.4 2.8
      vertex 0 -2.2 2.8
      vertex 0.229962 -2.18795 2.8
    endloop
  endfacet
  facet normal 0 0 1
    outer loop
      vertex -0.146339 -1.39233 2.8
      vertex 0 -2.2 2.8
      vertex 0 -1.4 2.8
    endloop
  endfacet
  facet normal 0 0 1
    outer loop
      vertex -0.146339 -1.39233 2.8
      vertex -0.229962 -2.18795 2.8
      vertex 0 -2.2 2.8
    endloop
  endfacet
  facet normal 0 0 1
    outer loop
      vertex -0.291076 -1.36941 2.8
      vertex -0.229962 -2.18795 2.8
      vertex -0.146339 -1.39233 2.8
    endloop
  endfacet
  facet normal 0 0 1
    outer loop
      vertex -0.457405 -2.15192 2.8
      vertex -0.291076 -1.36941 2.8
      vertex -0.432623 -1.33148 2.8
    endloop
  endfacet
  facet normal 0 0 1
    outer loop
      vertex -0.291076 -1.36941 2.8
      vertex -0.457405 -2.15192 2.8
      vertex -0.229962 -2.18795 2.8
    endloop
  endfacet
  facet normal 0 0 1
    outer loop
      vertex -0.679837 -2.09232 2.8
      vertex -0.432623 -1.33148 2.8
      vertex -0.56943 -1.27896 2.8
    endloop
  endfacet
  facet normal 0 0 1
    outer loop
      vertex -0.432623 -1.33148 2.8
      vertex -0.679837 -2.09232 2.8
      vertex -0.457405 -2.15192 2.8
    endloop
  endfacet
  facet normal 0 0 1
    outer loop
      vertex -0.89482 -2.0098 2.8
      vertex -0.56943 -1.27896 2.8
      vertex -0.7 -1.21243 2.8
    endloop
  endfacet
  facet normal 0 0 1
    outer loop
      vertex -1.1 -1.90526 2.8
      vertex -0.7 -1.21243 2.8
      vertex -0.822899 -1.13262 2.8
    endloop
  endfacet
  facet normal 0 0 1
    outer loop
      vertex -0.56943 -1.27896 2.8
      vertex -0.89482 -2.0098 2.8
      vertex -0.679837 -2.09232 2.8
    endloop
  endfacet
  facet normal 0 0 1
    outer loop
      vertex -1.29313 -1.77984 2.8
      vertex -0.822899 -1.13262 2.8
      vertex -0.936783 -1.0404 2.8
    endloop
  endfacet
  facet normal 0 0 1
    outer loop
      vertex -1.47209 -1.63492 2.8
      vertex -0.936783 -1.0404 2.8
      vertex -1.0404 -0.936783 2.8
    endloop
  endfacet
  facet normal 0 0 1
    outer loop
      vertex -0.7 -1.21243 2.8
      vertex -1.1 -1.90526 2.8
      vertex -0.89482 -2.0098 2.8
    endloop
  endfacet
  facet normal 0 0 1
    outer loop
      vertex -1.63492 -1.47209 2.8
      vertex -1.0404 -0.936783 2.8
      vertex -1.13262 -0.822899 2.8
    endloop
  endfacet
  facet normal 0 0 1
    outer loop
      vertex -1.77984 -1.29313 2.8
      vertex -1.13262 -0.822899 2.8
      vertex -1.21243 -0.7 2.8
    endloop
  endfacet
  facet normal 0 0 1
    outer loop
      vertex -1.90526 -1.1 2.8
      vertex -1.21243 -0.7 2.8
      vertex -1.27896 -0.56943 2.8
    endloop
  endfacet
  facet normal 0 0 1
    outer loop
      vertex -0.822899 -1.13262 2.8
      vertex -1.29313 -1.77984 2.8
      vertex -1.1 -1.90526 2.8
    endloop
  endfacet
  facet normal 0 0 1
    outer loop
      vertex -2.0098 -0.89482 2.8
      vertex -1.27896 -0.56943 2.8
      vertex -1.33148 -0.432623 2.8
    endloop
  endfacet
  facet normal 0 0 1
    outer loop
      vertex -2.09232 -0.679837 2.8
      vertex -1.33148 -0.432623 2.8
      vertex -1.36941 -0.291076 2.8
    endloop
  endfacet
  facet normal 0 0 1
    outer loop
      vertex -2.15192 -0.457405 2.8
      vertex -1.36941 -0.291076 2.8
      vertex -1.39233 -0.146339 2.8
    endloop
  endfacet
  facet normal 0 0 1
    outer loop
      vertex -0.936783 -1.0404 2.8
      vertex -1.47209 -1.63492 2.8
      vertex -1.29313 -1.77984 2.8
    endloop
  endfacet
  facet normal 0 0 1
    outer loop
      vertex -2.18795 -0.229962 2.8
      vertex -1.39233 -0.146339 2.8
      vertex -1.4 0 2.8
    endloop
  endfacet
  facet normal 0 0 1
    outer loop
      vertex -1.27896 0.56943 2.8
      vertex -2.0098 0.89482 2.8
      vertex -1.33148 0.432623 2.8
    endloop
  endfacet
  facet normal -0 0 1
    outer loop
      vertex -2.09232 0.679837 2.8
      vertex -1.33148 0.432623 2.8
      vertex -2.0098 0.89482 2.8
    endloop
  endfacet
  facet normal 0 0 1
    outer loop
      vertex -1.0404 -0.936783 2.8
      vertex -1.63492 -1.47209 2.8
      vertex -1.47209 -1.63492 2.8
    endloop
  endfacet
  facet normal 0 0 1
    outer loop
      vertex -1.33148 0.432623 2.8
      vertex -2.09232 0.679837 2.8
      vertex -1.36941 0.291076 2.8
    endloop
  endfacet
  facet normal 0 0 1
    outer loop
      vertex -1.13262 -0.822899 2.8
      vertex -1.77984 -1.29313 2.8
      vertex -1.63492 -1.47209 2.8
    endloop
  endfacet
  facet normal -0 0 1
    outer loop
      vertex -2.15192 0.457405 2.8
      vertex -1.36941 0.291076 2.8
      vertex -2.09232 0.679837 2.8
    endloop
  endfacet
  facet normal 0 0 1
    outer loop
      vertex -1.21243 -0.7 2.8
      vertex -1.90526 -1.1 2.8
      vertex -1.77984 -1.29313 2.8
    endloop
  endfacet
  facet normal 0 0 1
    outer loop
      vertex -1.36941 0.291076 2.8
      vertex -2.15192 0.457405 2.8
      vertex -1.39233 0.146339 2.8
    endloop
  endfacet
  facet normal 0 0 1
    outer loop
      vertex -1.27896 -0.56943 2.8
      vertex -2.0098 -0.89482 2.8
      vertex -1.90526 -1.1 2.8
    endloop
  endfacet
  facet normal -0 0 1
    outer loop
      vertex -2.18795 0.229962 2.8
      vertex -1.39233 0.146339 2.8
      vertex -2.15192 0.457405 2.8
    endloop
  endfacet
  facet normal 0 0 1
    outer loop
      vertex -1.33148 -0.432623 2.8
      vertex -2.09232 -0.679837 2.8
      vertex -2.0098 -0.89482 2.8
    endloop
  endfacet
  facet normal 0 0 1
    outer loop
      vertex -1.39233 0.146339 2.8
      vertex -2.18795 0.229962 2.8
      vertex -1.4 0 2.8
    endloop
  endfacet
  facet normal 0 0 1
    outer loop
      vertex -1.36941 -0.291076 2.8
      vertex -2.15192 -0.457405 2.8
      vertex -2.09232 -0.679837 2.8
    endloop
  endfacet
  facet normal 0 0 1
    outer loop
      vertex -2.2 0 2.8
      vertex -1.4 0 2.8
      vertex -2.18795 0.229962 2.8
    endloop
  endfacet
  facet normal 0 0 1
    outer loop
      vertex -1.39233 -0.146339 2.8
      vertex -2.18795 -0.229962 2.8
      vertex -2.15192 -0.457405 2.8
    endloop
  endfacet
  facet normal 0 0 1
    outer loop
      vertex -1.4 0 2.8
      vertex -2.2 0 2.8
      vertex -2.18795 -0.229962 2.8
    endloop
  endfacet
  facet normal -0.453975 0.891014 0
    outer loop
      vertex -0.89482 2.0098 0
      vertex -1.1 1.90526 2.8
      vertex -0.89482 2.0098 2.8
    endloop
  endfacet
  facet normal -0.453975 0.891014 0
    outer loop
      vertex -1.1 1.90526 2.8
      vertex -0.89482 2.0098 0
      vertex -1.1 1.90526 0
    endloop
  endfacet
  facet normal -0.358352 0.933587 0
    outer loop
      vertex -0.679837 2.09232 0
      vertex -0.89482 2.0098 2.8
      vertex -0.679837 2.09232 2.8
    endloop
  endfacet
  facet normal -0.358352 0.933587 0
    outer loop
      vertex -0.89482 2.0098 2.8
      vertex -0.679837 2.09232 0
      vertex -0.89482 2.0098 0
    endloop
  endfacet
  facet normal -0.544639 0.838671 0
    outer loop
      vertex -1.1 1.90526 0
      vertex -1.29313 1.77984 2.8
      vertex -1.1 1.90526 2.8
    endloop
  endfacet
  facet normal -0.544639 0.838671 0
    outer loop
      vertex -1.29313 1.77984 2.8
      vertex -1.1 1.90526 0
      vertex -1.29313 1.77984 0
    endloop
  endfacet
  facet normal -0.0523282 0.99863 0
    outer loop
      vertex 0 2.2 0
      vertex -0.229962 2.18795 2.8
      vertex 0 2.2 2.8
    endloop
  endfacet
  facet normal -0.0523282 0.99863 0
    outer loop
      vertex -0.229962 2.18795 2.8
      vertex 0 2.2 0
      vertex -0.229962 2.18795 0
    endloop
  endfacet
  facet normal 0.99863 -0.0523282 0
    outer loop
      vertex 2.18795 -0.229962 2.8
      vertex 2.2 0 0
      vertex 2.2 0 2.8
    endloop
  endfacet
  facet normal 0.99863 -0.0523282 0
    outer loop
      vertex 2.2 0 0
      vertex 2.18795 -0.229962 2.8
      vertex 2.18795 -0.229962 0
    endloop
  endfacet
  facet normal 0.0523282 -0.99863 0
    outer loop
      vertex 0 -2.2 0
      vertex 0.229962 -2.18795 2.8
      vertex 0 -2.2 2.8
    endloop
  endfacet
  facet normal 0.0523282 -0.99863 0
    outer loop
      vertex 0.229962 -2.18795 2.8
      vertex 0 -2.2 0
      vertex 0.229962 -2.18795 0
    endloop
  endfacet
  facet normal 0.258817 -0.965926 0
    outer loop
      vertex 0.457405 -2.15192 0
      vertex 0.679837 -2.09232 2.8
      vertex 0.457405 -2.15192 2.8
    endloop
  endfacet
  facet normal 0.258817 -0.965926 0
    outer loop
      vertex 0.679837 -2.09232 2.8
      vertex 0.457405 -2.15192 0
      vertex 0.679837 -2.09232 0
    endloop
  endfacet
  facet normal 0.629323 -0.777144 0
    outer loop
      vertex 1.29313 -1.77984 0
      vertex 1.47209 -1.63492 2.8
      vertex 1.29313 -1.77984 2.8
    endloop
  endfacet
  facet normal 0.629323 -0.777144 0
    outer loop
      vertex 1.47209 -1.63492 2.8
      vertex 1.29313 -1.77984 0
      vertex 1.47209 -1.63492 0
    endloop
  endfacet
  facet normal 0.453975 -0.891014 0
    outer loop
      vertex 0.89482 -2.0098 0
      vertex 1.1 -1.90526 2.8
      vertex 0.89482 -2.0098 2.8
    endloop
  endfacet
  facet normal 0.453975 -0.891014 0
    outer loop
      vertex 1.1 -1.90526 2.8
      vertex 0.89482 -2.0098 0
      vertex 1.1 -1.90526 0
    endloop
  endfacet
  facet normal 0.777144 -0.629323 0
    outer loop
      vertex 1.63492 -1.47209 2.8
      vertex 1.77984 -1.29313 0
      vertex 1.77984 -1.29313 2.8
    endloop
  endfacet
  facet normal 0.777144 -0.629323 0
    outer loop
      vertex 1.77984 -1.29313 0
      vertex 1.63492 -1.47209 2.8
      vertex 1.63492 -1.47209 0
    endloop
  endfacet
  facet normal 0.891014 -0.453975 0
    outer loop
      vertex 1.90526 -1.1 2.8
      vertex 2.0098 -0.89482 0
      vertex 2.0098 -0.89482 2.8
    endloop
  endfacet
  facet normal 0.891014 -0.453975 0
    outer loop
      vertex 2.0098 -0.89482 0
      vertex 1.90526 -1.1 2.8
      vertex 1.90526 -1.1 0
    endloop
  endfacet
  facet normal -0.707107 -0.707107 0
    outer loop
      vertex -1.47209 -1.63492 0
      vertex -1.63492 -1.47209 2.8
      vertex -1.63492 -1.47209 0
    endloop
  endfacet
  facet normal -0.707107 -0.707107 0
    outer loop
      vertex -1.63492 -1.47209 2.8
      vertex -1.47209 -1.63492 0
      vertex -1.47209 -1.63492 2.8
    endloop
  endfacet
  facet normal -0.544639 -0.838671 0
    outer loop
      vertex -1.29313 -1.77984 0
      vertex -1.1 -1.90526 2.8
      vertex -1.29313 -1.77984 2.8
    endloop
  endfacet
  facet normal -0.544639 -0.838671 -0
    outer loop
      vertex -1.1 -1.90526 2.8
      vertex -1.29313 -1.77984 0
      vertex -1.1 -1.90526 0
    endloop
  endfacet
  facet normal -0.358352 -0.933587 0
    outer loop
      vertex -0.89482 -2.0098 0
      vertex -0.679837 -2.09232 2.8
      vertex -0.89482 -2.0098 2.8
    endloop
  endfacet
  facet normal -0.358352 -0.933587 -0
    outer loop
      vertex -0.679837 -2.09232 2.8
      vertex -0.89482 -2.0098 0
      vertex -0.679837 -2.09232 0
    endloop
  endfacet
  facet normal -0.156462 -0.987684 0
    outer loop
      vertex -0.457405 -2.15192 0
      vertex -0.229962 -2.18795 2.8
      vertex -0.457405 -2.15192 2.8
    endloop
  endfacet
  facet normal -0.156462 -0.987684 -0
    outer loop
      vertex -0.229962 -2.18795 2.8
      vertex -0.457405 -2.15192 0
      vertex -0.229962 -2.18795 0
    endloop
  endfacet
  facet normal -0.933587 -0.358352 0
    outer loop
      vertex -2.0098 -0.89482 0
      vertex -2.09232 -0.679837 2.8
      vertex -2.09232 -0.679837 0
    endloop
  endfacet
  facet normal -0.933587 -0.358352 0
    outer loop
      vertex -2.09232 -0.679837 2.8
      vertex -2.0098 -0.89482 0
      vertex -2.0098 -0.89482 2.8
    endloop
  endfacet
  facet normal -0.838671 -0.544639 0
    outer loop
      vertex -1.77984 -1.29313 0
      vertex -1.90526 -1.1 2.8
      vertex -1.90526 -1.1 0
    endloop
  endfacet
  facet normal -0.838671 -0.544639 0
    outer loop
      vertex -1.90526 -1.1 2.8
      vertex -1.77984 -1.29313 0
      vertex -1.77984 -1.29313 2.8
    endloop
  endfacet
  facet normal -0.965926 -0.258817 0
    outer loop
      vertex -2.09232 -0.679837 0
      vertex -2.15192 -0.457405 2.8
      vertex -2.15192 -0.457405 0
    endloop
  endfacet
  facet normal -0.965926 -0.258817 0
    outer loop
      vertex -2.15192 -0.457405 2.8
      vertex -2.09232 -0.679837 0
      vertex -2.09232 -0.679837 2.8
    endloop
  endfacet
  facet normal -0.99863 -0.0523282 0
    outer loop
      vertex -2.18795 -0.229962 0
      vertex -2.2 0 2.8
      vertex -2.2 0 0
    endloop
  endfacet
  facet normal -0.99863 -0.0523282 0
    outer loop
      vertex -2.2 0 2.8
      vertex -2.18795 -0.229962 0
      vertex -2.18795 -0.229962 2.8
    endloop
  endfacet
  facet normal 0.156462 -0.987684 0
    outer loop
      vertex 0.229962 -2.18795 0
      vertex 0.457405 -2.15192 2.8
      vertex 0.229962 -2.18795 2.8
    endloop
  endfacet
  facet normal 0.156462 -0.987684 0
    outer loop
      vertex 0.457405 -2.15192 2.8
      vertex 0.229962 -2.18795 0
      vertex 0.457405 -2.15192 0
    endloop
  endfacet
  facet normal 0.358352 -0.933587 0
    outer loop
      vertex 0.679837 -2.09232 0
      vertex 0.89482 -2.0098 2.8
      vertex 0.679837 -2.09232 2.8
    endloop
  endfacet
  facet normal 0.358352 -0.933587 0
    outer loop
      vertex 0.89482 -2.0098 2.8
      vertex 0.679837 -2.09232 0
      vertex 0.89482 -2.0098 0
    endloop
  endfacet
  facet normal 0.707107 -0.707107 0
    outer loop
      vertex 1.47209 -1.63492 2.8
      vertex 1.63492 -1.47209 0
      vertex 1.63492 -1.47209 2.8
    endloop
  endfacet
  facet normal 0.707107 -0.707107 0
    outer loop
      vertex 1.63492 -1.47209 0
      vertex 1.47209 -1.63492 2.8
      vertex 1.47209 -1.63492 0
    endloop
  endfacet
  facet normal 0.544639 -0.838671 0
    outer loop
      vertex 1.1 -1.90526 0
      vertex 1.29313 -1.77984 2.8
      vertex 1.1 -1.90526 2.8
    endloop
  endfacet
  facet normal 0.544639 -0.838671 0
    outer loop
      vertex 1.29313 -1.77984 2.8
      vertex 1.1 -1.90526 0
      vertex 1.29313 -1.77984 0
    endloop
  endfacet
  facet normal 0.838671 -0.544639 0
    outer loop
      vertex 1.77984 -1.29313 2.8
      vertex 1.90526 -1.1 0
      vertex 1.90526 -1.1 2.8
    endloop
  endfacet
  facet normal 0.838671 -0.544639 0
    outer loop
      vertex 1.90526 -1.1 0
      vertex 1.77984 -1.29313 2.8
      vertex 1.77984 -1.29313 0
    endloop
  endfacet
  facet normal 0.933587 -0.358352 0
    outer loop
      vertex 2.0098 -0.89482 2.8
      vertex 2.09232 -0.679837 0
      vertex 2.09232 -0.679837 2.8
    endloop
  endfacet
  facet normal 0.933587 -0.358352 0
    outer loop
      vertex 2.09232 -0.679837 0
      vertex 2.0098 -0.89482 2.8
      vertex 2.0098 -0.89482 0
    endloop
  endfacet
  facet normal 0.987684 -0.156462 0
    outer loop
      vertex 2.15192 -0.457405 2.8
      vertex 2.18795 -0.229962 0
      vertex 2.18795 -0.229962 2.8
    endloop
  endfacet
  facet normal 0.987684 -0.156462 0
    outer loop
      vertex 2.18795 -0.229962 0
      vertex 2.15192 -0.457405 2.8
      vertex 2.15192 -0.457405 0
    endloop
  endfacet
  facet normal 0.965926 -0.258817 0
    outer loop
      vertex 2.09232 -0.679837 2.8
      vertex 2.15192 -0.457405 0
      vertex 2.15192 -0.457405 2.8
    endloop
  endfacet
  facet normal 0.965926 -0.258817 0
    outer loop
      vertex 2.15192 -0.457405 0
      vertex 2.09232 -0.679837 2.8
      vertex 2.09232 -0.679837 0
    endloop
  endfacet
  facet normal -0.629323 -0.777144 0
    outer loop
      vertex -1.47209 -1.63492 0
      vertex -1.29313 -1.77984 2.8
      vertex -1.47209 -1.63492 2.8
    endloop
  endfacet
  facet normal -0.629323 -0.777144 -0
    outer loop
      vertex -1.29313 -1.77984 2.8
      vertex -1.47209 -1.63492 0
      vertex -1.29313 -1.77984 0
    endloop
  endfacet
  facet normal -0.453975 -0.891014 0
    outer loop
      vertex -1.1 -1.90526 0
      vertex -0.89482 -2.0098 2.8
      vertex -1.1 -1.90526 2.8
    endloop
  endfacet
  facet normal -0.453975 -0.891014 -0
    outer loop
      vertex -0.89482 -2.0098 2.8
      vertex -1.1 -1.90526 0
      vertex -0.89482 -2.0098 0
    endloop
  endfacet
  facet normal -0.258817 -0.965926 0
    outer loop
      vertex -0.679837 -2.09232 0
      vertex -0.457405 -2.15192 2.8
      vertex -0.679837 -2.09232 2.8
    endloop
  endfacet
  facet normal -0.258817 -0.965926 -0
    outer loop
      vertex -0.457405 -2.15192 2.8
      vertex -0.679837 -2.09232 0
      vertex -0.457405 -2.15192 0
    endloop
  endfacet
  facet normal -0.0523282 -0.99863 0
    outer loop
      vertex -0.229962 -2.18795 0
      vertex 0 -2.2 2.8
      vertex -0.229962 -2.18795 2.8
    endloop
  endfacet
  facet normal -0.0523282 -0.99863 -0
    outer loop
      vertex 0 -2.2 2.8
      vertex -0.229962 -2.18795 0
      vertex 0 -2.2 0
    endloop
  endfacet
  facet normal -0.891014 -0.453975 0
    outer loop
      vertex -1.90526 -1.1 0
      vertex -2.0098 -0.89482 2.8
      vertex -2.0098 -0.89482 0
    endloop
  endfacet
  facet normal -0.891014 -0.453975 0
    outer loop
      vertex -2.0098 -0.89482 2.8
      vertex -1.90526 -1.1 0
      vertex -1.90526 -1.1 2.8
    endloop
  endfacet
  facet normal -0.777144 -0.629323 0
    outer loop
      vertex -1.63492 -1.47209 0
      vertex -1.77984 -1.29313 2.8
      vertex -1.77984 -1.29313 0
    endloop
  endfacet
  facet normal -0.777144 -0.629323 0
    outer loop
      vertex -1.77984 -1.29313 2.8
      vertex -1.63492 -1.47209 0
      vertex -1.63492 -1.47209 2.8
    endloop
  endfacet
  facet normal -0.987684 -0.156462 0
    outer loop
      vertex -2.15192 -0.457405 0
      vertex -2.18795 -0.229962 2.8
      vertex -2.18795 -0.229962 0
    endloop
  endfacet
  facet normal -0.987684 -0.156462 0
    outer loop
      vertex -2.18795 -0.229962 2.8
      vertex -2.15192 -0.457405 0
      vertex -2.15192 -0.457405 2.8
    endloop
  endfacet
  facet normal 0.629314 0.777151 -0
    outer loop
      vertex 0.936783 1.0404 2.8
      vertex 0.822899 1.13262 6.2
      vertex 0.936783 1.0404 6.2
    endloop
  endfacet
  facet normal 0.629314 0.777151 0
    outer loop
      vertex 0.822899 1.13262 6.2
      vertex 0.936783 1.0404 2.8
      vertex 0.822899 1.13262 2.8
    endloop
  endfacet
  facet normal -0.258836 0.965921 0
    outer loop
      vertex -0.291076 1.36941 2.8
      vertex -0.432623 1.33148 6.2
      vertex -0.291076 1.36941 6.2
    endloop
  endfacet
  facet normal -0.258836 0.965921 0
    outer loop
      vertex -0.432623 1.33148 6.2
      vertex -0.291076 1.36941 2.8
      vertex -0.432623 1.33148 2.8
    endloop
  endfacet
  facet normal -0.891003 0.453997 0
    outer loop
      vertex -1.27896 0.56943 2.8
      vertex -1.21243 0.7 6.2
      vertex -1.21243 0.7 2.8
    endloop
  endfacet
  facet normal -0.891003 0.453997 0
    outer loop
      vertex -1.21243 0.7 6.2
      vertex -1.27896 0.56943 2.8
      vertex -1.27896 0.56943 6.2
    endloop
  endfacet
  facet normal 0.93357 -0.358396 0
    outer loop
      vertex 1.27896 -0.56943 6.2
      vertex 1.33148 -0.432623 2.8
      vertex 1.33148 -0.432623 6.2
    endloop
  endfacet
  facet normal 0.93357 -0.358396 0
    outer loop
      vertex 1.33148 -0.432623 2.8
      vertex 1.27896 -0.56943 6.2
      vertex 1.27896 -0.56943 2.8
    endloop
  endfacet
  facet normal -0.453997 -0.891003 0
    outer loop
      vertex -0.7 -1.21243 2.8
      vertex -0.56943 -1.27896 6.2
      vertex -0.7 -1.21243 6.2
    endloop
  endfacet
  facet normal -0.453997 -0.891003 -0
    outer loop
      vertex -0.56943 -1.27896 6.2
      vertex -0.7 -1.21243 2.8
      vertex -0.56943 -1.27896 2.8
    endloop
  endfacet
  facet normal 0.891003 0.453997 0
    outer loop
      vertex 1.27896 0.56943 6.2
      vertex 1.21243 0.7 2.8
      vertex 1.21243 0.7 6.2
    endloop
  endfacet
  facet normal 0.891003 0.453997 0
    outer loop
      vertex 1.21243 0.7 2.8
      vertex 1.27896 0.56943 6.2
      vertex 1.27896 0.56943 2.8
    endloop
  endfacet
  facet normal 0.838675 0.544632 0
    outer loop
      vertex 1.21243 0.7 6.2
      vertex 1.13262 0.822899 2.8
      vertex 1.13262 0.822899 6.2
    endloop
  endfacet
  facet normal 0.838675 0.544632 0
    outer loop
      vertex 1.13262 0.822899 2.8
      vertex 1.21243 0.7 6.2
      vertex 1.21243 0.7 2.8
    endloop
  endfacet
  facet normal 0.358396 0.93357 -0
    outer loop
      vertex 0.56943 1.27896 2.8
      vertex 0.432623 1.33148 6.2
      vertex 0.56943 1.27896 6.2
    endloop
  endfacet
  facet normal 0.358396 0.93357 0
    outer loop
      vertex 0.432623 1.33148 6.2
      vertex 0.56943 1.27896 2.8
      vertex 0.432623 1.33148 2.8
    endloop
  endfacet
  facet normal 0.0523407 0.998629 -0
    outer loop
      vertex 0.146339 1.39233 2.8
      vertex 0 1.4 6.2
      vertex 0.146339 1.39233 6.2
    endloop
  endfacet
  facet normal 0.0523407 0.998629 0
    outer loop
      vertex 0 1.4 6.2
      vertex 0.146339 1.39233 2.8
      vertex 0 1.4 2.8
    endloop
  endfacet
  facet normal -0.707107 0.707107 0
    outer loop
      vertex -1.0404 0.936783 2.8
      vertex -0.936783 1.0404 6.2
      vertex -0.936783 1.0404 2.8
    endloop
  endfacet
  facet normal -0.707107 0.707107 0
    outer loop
      vertex -0.936783 1.0404 6.2
      vertex -1.0404 0.936783 2.8
      vertex -1.0404 0.936783 6.2
    endloop
  endfacet
  facet normal -0.0523407 0.998629 0
    outer loop
      vertex 0 1.4 2.8
      vertex -0.146339 1.39233 6.2
      vertex 0 1.4 6.2
    endloop
  endfacet
  facet normal -0.0523407 0.998629 0
    outer loop
      vertex -0.146339 1.39233 6.2
      vertex 0 1.4 2.8
      vertex -0.146339 1.39233 2.8
    endloop
  endfacet
  facet normal 0.998629 -0.0523407 0
    outer loop
      vertex 1.39233 -0.146339 6.2
      vertex 1.4 0 2.8
      vertex 1.4 0 6.2
    endloop
  endfacet
  facet normal 0.998629 -0.0523407 0
    outer loop
      vertex 1.4 0 2.8
      vertex 1.39233 -0.146339 6.2
      vertex 1.39233 -0.146339 2.8
    endloop
  endfacet
  facet normal 0.777151 -0.629314 0
    outer loop
      vertex 1.0404 -0.936783 6.2
      vertex 1.13262 -0.822899 2.8
      vertex 1.13262 -0.822899 6.2
    endloop
  endfacet
  facet normal 0.777151 -0.629314 0
    outer loop
      vertex 1.13262 -0.822899 2.8
      vertex 1.0404 -0.936783 6.2
      vertex 1.0404 -0.936783 2.8
    endloop
  endfacet
  facet normal -0.156407 -0.987693 0
    outer loop
      vertex -0.291076 -1.36941 2.8
      vertex -0.146339 -1.39233 6.2
      vertex -0.291076 -1.36941 6.2
    endloop
  endfacet
  facet normal -0.156407 -0.987693 -0
    outer loop
      vertex -0.146339 -1.39233 6.2
      vertex -0.291076 -1.36941 2.8
      vertex -0.146339 -1.39233 2.8
    endloop
  endfacet
  facet normal -0.707107 -0.707107 0
    outer loop
      vertex -0.936783 -1.0404 2.8
      vertex -1.0404 -0.936783 6.2
      vertex -1.0404 -0.936783 2.8
    endloop
  endfacet
  facet normal -0.707107 -0.707107 0
    outer loop
      vertex -1.0404 -0.936783 6.2
      vertex -0.936783 -1.0404 2.8
      vertex -0.936783 -1.0404 6.2
    endloop
  endfacet
  facet normal -0.998629 -0.0523407 0
    outer loop
      vertex -1.39233 -0.146339 2.8
      vertex -1.4 0 6.2
      vertex -1.4 0 2.8
    endloop
  endfacet
  facet normal -0.998629 -0.0523407 0
    outer loop
      vertex -1.4 0 6.2
      vertex -1.39233 -0.146339 2.8
      vertex -1.39233 -0.146339 6.2
    endloop
  endfacet
  facet normal 0.987693 0.156407 0
    outer loop
      vertex 1.39233 0.146339 6.2
      vertex 1.36941 0.291076 2.8
      vertex 1.36941 0.291076 6.2
    endloop
  endfacet
  facet normal 0.987693 0.156407 0
    outer loop
      vertex 1.36941 0.291076 2.8
      vertex 1.39233 0.146339 6.2
      vertex 1.39233 0.146339 2.8
    endloop
  endfacet
  facet normal 0.965921 0.258836 0
    outer loop
      vertex 1.36941 0.291076 6.2
      vertex 1.33148 0.432623 2.8
      vertex 1.33148 0.432623 6.2
    endloop
  endfacet
  facet normal 0.965921 0.258836 0
    outer loop
      vertex 1.33148 0.432623 2.8
      vertex 1.36941 0.291076 6.2
      vertex 1.36941 0.291076 2.8
    endloop
  endfacet
  facet normal 0.93357 0.358396 0
    outer loop
      vertex 1.33148 0.432623 6.2
      vertex 1.27896 0.56943 2.8
      vertex 1.27896 0.56943 6.2
    endloop
  endfacet
  facet normal 0.93357 0.358396 0
    outer loop
      vertex 1.27896 0.56943 2.8
      vertex 1.33148 0.432623 6.2
      vertex 1.33148 0.432623 2.8
    endloop
  endfacet
  facet normal 0.777151 0.629314 0
    outer loop
      vertex 1.13262 0.822899 6.2
      vertex 1.0404 0.936783 2.8
      vertex 1.0404 0.936783 6.2
    endloop
  endfacet
  facet normal 0.777151 0.629314 0
    outer loop
      vertex 1.0404 0.936783 2.8
      vertex 1.13262 0.822899 6.2
      vertex 1.13262 0.822899 2.8
    endloop
  endfacet
  facet normal 0.707107 0.707107 0
    outer loop
      vertex 1.0404 0.936783 6.2
      vertex 0.936783 1.0404 2.8
      vertex 0.936783 1.0404 6.2
    endloop
  endfacet
  facet normal 0.707107 0.707107 0
    outer loop
      vertex 0.936783 1.0404 2.8
      vertex 1.0404 0.936783 6.2
      vertex 1.0404 0.936783 2.8
    endloop
  endfacet
  facet normal 0.544632 0.838675 -0
    outer loop
      vertex 0.822899 1.13262 2.8
      vertex 0.7 1.21243 6.2
      vertex 0.822899 1.13262 6.2
    endloop
  endfacet
  facet normal 0.544632 0.838675 0
    outer loop
      vertex 0.7 1.21243 6.2
      vertex 0.822899 1.13262 2.8
      vertex 0.7 1.21243 2.8
    endloop
  endfacet
  facet normal 0.453997 0.891003 -0
    outer loop
      vertex 0.7 1.21243 2.8
      vertex 0.56943 1.27896 6.2
      vertex 0.7 1.21243 6.2
    endloop
  endfacet
  facet normal 0.453997 0.891003 0
    outer loop
      vertex 0.56943 1.27896 6.2
      vertex 0.7 1.21243 2.8
      vertex 0.56943 1.27896 2.8
    endloop
  endfacet
  facet normal 0.258836 0.965921 -0
    outer loop
      vertex 0.432623 1.33148 2.8
      vertex 0.291076 1.36941 6.2
      vertex 0.432623 1.33148 6.2
    endloop
  endfacet
  facet normal 0.258836 0.965921 0
    outer loop
      vertex 0.291076 1.36941 6.2
      vertex 0.432623 1.33148 2.8
      vertex 0.291076 1.36941 2.8
    endloop
  endfacet
  facet normal 0.156407 0.987693 -0
    outer loop
      vertex 0.291076 1.36941 2.8
      vertex 0.146339 1.39233 6.2
      vertex 0.291076 1.36941 6.2
    endloop
  endfacet
  facet normal 0.156407 0.987693 0
    outer loop
      vertex 0.146339 1.39233 6.2
      vertex 0.291076 1.36941 2.8
      vertex 0.146339 1.39233 2.8
    endloop
  endfacet
  facet normal -0.998629 0.0523407 0
    outer loop
      vertex -1.4 0 2.8
      vertex -1.39233 0.146339 6.2
      vertex -1.39233 0.146339 2.8
    endloop
  endfacet
  facet normal -0.998629 0.0523407 0
    outer loop
      vertex -1.39233 0.146339 6.2
      vertex -1.4 0 2.8
      vertex -1.4 0 6.2
    endloop
  endfacet
  facet normal -0.93357 0.358396 0
    outer loop
      vertex -1.33148 0.432623 2.8
      vertex -1.27896 0.56943 6.2
      vertex -1.27896 0.56943 2.8
    endloop
  endfacet
  facet normal -0.93357 0.358396 0
    outer loop
      vertex -1.27896 0.56943 6.2
      vertex -1.33148 0.432623 2.8
      vertex -1.33148 0.432623 6.2
    endloop
  endfacet
  facet normal -0.965921 0.258836 0
    outer loop
      vertex -1.36941 0.291076 2.8
      vertex -1.33148 0.432623 6.2
      vertex -1.33148 0.432623 2.8
    endloop
  endfacet
  facet normal -0.965921 0.258836 0
    outer loop
      vertex -1.33148 0.432623 6.2
      vertex -1.36941 0.291076 2.8
      vertex -1.36941 0.291076 6.2
    endloop
  endfacet
  facet normal -0.838675 0.544632 0
    outer loop
      vertex -1.21243 0.7 2.8
      vertex -1.13262 0.822899 6.2
      vertex -1.13262 0.822899 2.8
    endloop
  endfacet
  facet normal -0.838675 0.544632 0
    outer loop
      vertex -1.13262 0.822899 6.2
      vertex -1.21243 0.7 2.8
      vertex -1.21243 0.7 6.2
    endloop
  endfacet
  facet normal -0.777151 0.629314 0
    outer loop
      vertex -1.13262 0.822899 2.8
      vertex -1.0404 0.936783 6.2
      vertex -1.0404 0.936783 2.8
    endloop
  endfacet
  facet normal -0.777151 0.629314 0
    outer loop
      vertex -1.0404 0.936783 6.2
      vertex -1.13262 0.822899 2.8
      vertex -1.13262 0.822899 6.2
    endloop
  endfacet
  facet normal -0.156407 0.987693 0
    outer loop
      vertex -0.146339 1.39233 2.8
      vertex -0.291076 1.36941 6.2
      vertex -0.146339 1.39233 6.2
    endloop
  endfacet
  facet normal -0.156407 0.987693 0
    outer loop
      vertex -0.291076 1.36941 6.2
      vertex -0.146339 1.39233 2.8
      vertex -0.291076 1.36941 2.8
    endloop
  endfacet
  facet normal -0.453997 0.891003 0
    outer loop
      vertex -0.56943 1.27896 2.8
      vertex -0.7 1.21243 6.2
      vertex -0.56943 1.27896 6.2
    endloop
  endfacet
  facet normal -0.453997 0.891003 0
    outer loop
      vertex -0.7 1.21243 6.2
      vertex -0.56943 1.27896 2.8
      vertex -0.7 1.21243 2.8
    endloop
  endfacet
  facet normal -0.544632 0.838675 0
    outer loop
      vertex -0.7 1.21243 2.8
      vertex -0.822899 1.13262 6.2
      vertex -0.7 1.21243 6.2
    endloop
  endfacet
  facet normal -0.544632 0.838675 0
    outer loop
      vertex -0.822899 1.13262 6.2
      vertex -0.7 1.21243 2.8
      vertex -0.822899 1.13262 2.8
    endloop
  endfacet
  facet normal -0.358396 0.93357 0
    outer loop
      vertex -0.432623 1.33148 2.8
      vertex -0.56943 1.27896 6.2
      vertex -0.432623 1.33148 6.2
    endloop
  endfacet
  facet normal -0.358396 0.93357 0
    outer loop
      vertex -0.56943 1.27896 6.2
      vertex -0.432623 1.33148 2.8
      vertex -0.56943 1.27896 2.8
    endloop
  endfacet
  facet normal -0.629314 0.777151 0
    outer loop
      vertex -0.822899 1.13262 2.8
      vertex -0.936783 1.0404 6.2
      vertex -0.822899 1.13262 6.2
    endloop
  endfacet
  facet normal -0.629314 0.777151 0
    outer loop
      vertex -0.936783 1.0404 6.2
      vertex -0.822899 1.13262 2.8
      vertex -0.936783 1.0404 2.8
    endloop
  endfacet
  facet normal 0.998629 0.0523407 0
    outer loop
      vertex 1.4 0 6.2
      vertex 1.39233 0.146339 2.8
      vertex 1.39233 0.146339 6.2
    endloop
  endfacet
  facet normal 0.998629 0.0523407 0
    outer loop
      vertex 1.39233 0.146339 2.8
      vertex 1.4 0 6.2
      vertex 1.4 0 2.8
    endloop
  endfacet
  facet normal 0.0523407 -0.998629 0
    outer loop
      vertex 0 -1.4 2.8
      vertex 0.146339 -1.39233 6.2
      vertex 0 -1.4 6.2
    endloop
  endfacet
  facet normal 0.0523407 -0.998629 0
    outer loop
      vertex 0.146339 -1.39233 6.2
      vertex 0 -1.4 2.8
      vertex 0.146339 -1.39233 2.8
    endloop
  endfacet
  facet normal 0.156407 -0.987693 0
    outer loop
      vertex 0.146339 -1.39233 2.8
      vertex 0.291076 -1.36941 6.2
      vertex 0.146339 -1.39233 6.2
    endloop
  endfacet
  facet normal 0.156407 -0.987693 0
    outer loop
      vertex 0.291076 -1.36941 6.2
      vertex 0.146339 -1.39233 2.8
      vertex 0.291076 -1.36941 2.8
    endloop
  endfacet
  facet normal 0.258836 -0.965921 0
    outer loop
      vertex 0.291076 -1.36941 2.8
      vertex 0.432623 -1.33148 6.2
      vertex 0.291076 -1.36941 6.2
    endloop
  endfacet
  facet normal 0.258836 -0.965921 0
    outer loop
      vertex 0.432623 -1.33148 6.2
      vertex 0.291076 -1.36941 2.8
      vertex 0.432623 -1.33148 2.8
    endloop
  endfacet
  facet normal 0.629314 -0.777151 0
    outer loop
      vertex 0.822899 -1.13262 2.8
      vertex 0.936783 -1.0404 6.2
      vertex 0.822899 -1.13262 6.2
    endloop
  endfacet
  facet normal 0.629314 -0.777151 0
    outer loop
      vertex 0.936783 -1.0404 6.2
      vertex 0.822899 -1.13262 2.8
      vertex 0.936783 -1.0404 2.8
    endloop
  endfacet
  facet normal 0.453997 -0.891003 0
    outer loop
      vertex 0.56943 -1.27896 2.8
      vertex 0.7 -1.21243 6.2
      vertex 0.56943 -1.27896 6.2
    endloop
  endfacet
  facet normal 0.453997 -0.891003 0
    outer loop
      vertex 0.7 -1.21243 6.2
      vertex 0.56943 -1.27896 2.8
      vertex 0.7 -1.21243 2.8
    endloop
  endfacet
  facet normal 0.891003 -0.453997 0
    outer loop
      vertex 1.21243 -0.7 6.2
      vertex 1.27896 -0.56943 2.8
      vertex 1.27896 -0.56943 6.2
    endloop
  endfacet
  facet normal 0.891003 -0.453997 0
    outer loop
      vertex 1.27896 -0.56943 2.8
      vertex 1.21243 -0.7 6.2
      vertex 1.21243 -0.7 2.8
    endloop
  endfacet
  facet normal -0.0523407 -0.998629 0
    outer loop
      vertex -0.146339 -1.39233 2.8
      vertex 0 -1.4 6.2
      vertex -0.146339 -1.39233 6.2
    endloop
  endfacet
  facet normal -0.0523407 -0.998629 -0
    outer loop
      vertex 0 -1.4 6.2
      vertex -0.146339 -1.39233 2.8
      vertex 0 -1.4 2.8
    endloop
  endfacet
  facet normal -0.358396 -0.93357 0
    outer loop
      vertex -0.56943 -1.27896 2.8
      vertex -0.432623 -1.33148 6.2
      vertex -0.56943 -1.27896 6.2
    endloop
  endfacet
  facet normal -0.358396 -0.93357 -0
    outer loop
      vertex -0.432623 -1.33148 6.2
      vertex -0.56943 -1.27896 2.8
      vertex -0.432623 -1.33148 2.8
    endloop
  endfacet
  facet normal -0.544632 -0.838675 0
    outer loop
      vertex -0.822899 -1.13262 2.8
      vertex -0.7 -1.21243 6.2
      vertex -0.822899 -1.13262 6.2
    endloop
  endfacet
  facet normal -0.544632 -0.838675 -0
    outer loop
      vertex -0.7 -1.21243 6.2
      vertex -0.822899 -1.13262 2.8
      vertex -0.7 -1.21243 2.8
    endloop
  endfacet
  facet normal -0.987693 -0.156407 0
    outer loop
      vertex -1.36941 -0.291076 2.8
      vertex -1.39233 -0.146339 6.2
      vertex -1.39233 -0.146339 2.8
    endloop
  endfacet
  facet normal -0.987693 -0.156407 0
    outer loop
      vertex -1.39233 -0.146339 6.2
      vertex -1.36941 -0.291076 2.8
      vertex -1.36941 -0.291076 6.2
    endloop
  endfacet
  facet normal -0.838675 -0.544632 0
    outer loop
      vertex -1.13262 -0.822899 2.8
      vertex -1.21243 -0.7 6.2
      vertex -1.21243 -0.7 2.8
    endloop
  endfacet
  facet normal -0.838675 -0.544632 0
    outer loop
      vertex -1.21243 -0.7 6.2
      vertex -1.13262 -0.822899 2.8
      vertex -1.13262 -0.822899 6.2
    endloop
  endfacet
  facet normal -0.93357 -0.358396 0
    outer loop
      vertex -1.27896 -0.56943 2.8
      vertex -1.33148 -0.432623 6.2
      vertex -1.33148 -0.432623 2.8
    endloop
  endfacet
  facet normal -0.93357 -0.358396 0
    outer loop
      vertex -1.33148 -0.432623 6.2
      vertex -1.27896 -0.56943 2.8
      vertex -1.27896 -0.56943 6.2
    endloop
  endfacet
  facet normal -0.777151 -0.629314 0
    outer loop
      vertex -1.0404 -0.936783 2.8
      vertex -1.13262 -0.822899 6.2
      vertex -1.13262 -0.822899 2.8
    endloop
  endfacet
  facet normal -0.777151 -0.629314 0
    outer loop
      vertex -1.13262 -0.822899 6.2
      vertex -1.0404 -0.936783 2.8
      vertex -1.0404 -0.936783 6.2
    endloop
  endfacet
  facet normal 0 0 1
    outer loop
      vertex 1.39233 0.146339 6.2
      vertex 1.39233 -0.146339 6.2
      vertex 1.4 0 6.2
    endloop
  endfacet
  facet normal 0 0 1
    outer loop
      vertex 1.36941 0.291076 6.2
      vertex 1.39233 -0.146339 6.2
      vertex 1.39233 0.146339 6.2
    endloop
  endfacet
  facet normal 0 0 1
    outer loop
      vertex 1.36941 0.291076 6.2
      vertex 1.36941 -0.291076 6.2
      vertex 1.39233 -0.146339 6.2
    endloop
  endfacet
  facet normal 0 0 1
    outer loop
      vertex 1.33148 0.432623 6.2
      vertex 1.36941 -0.291076 6.2
      vertex 1.36941 0.291076 6.2
    endloop
  endfacet
  facet normal 0 0 1
    outer loop
      vertex 1.33148 0.432623 6.2
      vertex 1.33148 -0.432623 6.2
      vertex 1.36941 -0.291076 6.2
    endloop
  endfacet
  facet normal 0 0 1
    outer loop
      vertex 1.27896 0.56943 6.2
      vertex 1.33148 -0.432623 6.2
      vertex 1.33148 0.432623 6.2
    endloop
  endfacet
  facet normal 0 0 1
    outer loop
      vertex 1.27896 0.56943 6.2
      vertex 1.27896 -0.56943 6.2
      vertex 1.33148 -0.432623 6.2
    endloop
  endfacet
  facet normal 0 0 1
    outer loop
      vertex 1.21243 0.7 6.2
      vertex 1.27896 -0.56943 6.2
      vertex 1.27896 0.56943 6.2
    endloop
  endfacet
  facet normal 0 0 1
    outer loop
      vertex 1.21243 0.7 6.2
      vertex 1.21243 -0.7 6.2
      vertex 1.27896 -0.56943 6.2
    endloop
  endfacet
  facet normal 0 0 1
    outer loop
      vertex 1.13262 0.822899 6.2
      vertex 1.21243 -0.7 6.2
      vertex 1.21243 0.7 6.2
    endloop
  endfacet
  facet normal 0 0 1
    outer loop
      vertex 1.13262 0.822899 6.2
      vertex 1.13262 -0.822899 6.2
      vertex 1.21243 -0.7 6.2
    endloop
  endfacet
  facet normal 0 0 1
    outer loop
      vertex 1.0404 0.936783 6.2
      vertex 1.13262 -0.822899 6.2
      vertex 1.13262 0.822899 6.2
    endloop
  endfacet
  facet normal 0 0 1
    outer loop
      vertex 1.0404 0.936783 6.2
      vertex 1.0404 -0.936783 6.2
      vertex 1.13262 -0.822899 6.2
    endloop
  endfacet
  facet normal 0 0 1
    outer loop
      vertex 0.936783 1.0404 6.2
      vertex 1.0404 -0.936783 6.2
      vertex 1.0404 0.936783 6.2
    endloop
  endfacet
  facet normal 0 0 1
    outer loop
      vertex 0.936783 1.0404 6.2
      vertex 0.936783 -1.0404 6.2
      vertex 1.0404 -0.936783 6.2
    endloop
  endfacet
  facet normal 0 0 1
    outer loop
      vertex 0.822899 1.13262 6.2
      vertex 0.936783 -1.0404 6.2
      vertex 0.936783 1.0404 6.2
    endloop
  endfacet
  facet normal 0 0 1
    outer loop
      vertex 0.822899 1.13262 6.2
      vertex 0.822899 -1.13262 6.2
      vertex 0.936783 -1.0404 6.2
    endloop
  endfacet
  facet normal 0 0 1
    outer loop
      vertex 0.7 1.21243 6.2
      vertex 0.822899 -1.13262 6.2
      vertex 0.822899 1.13262 6.2
    endloop
  endfacet
  facet normal 0 0 1
    outer loop
      vertex 0.7 1.21243 6.2
      vertex 0.7 -1.21243 6.2
      vertex 0.822899 -1.13262 6.2
    endloop
  endfacet
  facet normal 0 0 1
    outer loop
      vertex 0.56943 1.27896 6.2
      vertex 0.7 -1.21243 6.2
      vertex 0.7 1.21243 6.2
    endloop
  endfacet
  facet normal 0 0 1
    outer loop
      vertex 0.56943 1.27896 6.2
      vertex 0.56943 -1.27896 6.2
      vertex 0.7 -1.21243 6.2
    endloop
  endfacet
  facet normal 0 0 1
    outer loop
      vertex 0.432623 1.33148 6.2
      vertex 0.56943 -1.27896 6.2
      vertex 0.56943 1.27896 6.2
    endloop
  endfacet
  facet normal 0 0 1
    outer loop
      vertex 0.432623 1.33148 6.2
      vertex 0.432623 -1.33148 6.2
      vertex 0.56943 -1.27896 6.2
    endloop
  endfacet
  facet normal 0 0 1
    outer loop
      vertex 0.291076 1.36941 6.2
      vertex 0.432623 -1.33148 6.2
      vertex 0.432623 1.33148 6.2
    endloop
  endfacet
  facet normal 0 0 1
    outer loop
      vertex 0.291076 1.36941 6.2
      vertex 0.291076 -1.36941 6.2
      vertex 0.432623 -1.33148 6.2
    endloop
  endfacet
  facet normal 0 0 1
    outer loop
      vertex 0.146339 1.39233 6.2
      vertex 0.291076 -1.36941 6.2
      vertex 0.291076 1.36941 6.2
    endloop
  endfacet
  facet normal 0 0 1
    outer loop
      vertex 0.146339 1.39233 6.2
      vertex 0.146339 -1.39233 6.2
      vertex 0.291076 -1.36941 6.2
    endloop
  endfacet
  facet normal 0 0 1
    outer loop
      vertex 0 1.4 6.2
      vertex 0.146339 -1.39233 6.2
      vertex 0.146339 1.39233 6.2
    endloop
  endfacet
  facet normal 0 0 1
    outer loop
      vertex 0 1.4 6.2
      vertex 0 -1.4 6.2
      vertex 0.146339 -1.39233 6.2
    endloop
  endfacet
  facet normal -0 0 1
    outer loop
      vertex -0.146339 1.39233 6.2
      vertex 0 -1.4 6.2
      vertex 0 1.4 6.2
    endloop
  endfacet
  facet normal 0 0 1
    outer loop
      vertex -0.146339 1.39233 6.2
      vertex -0.146339 -1.39233 6.2
      vertex 0 -1.4 6.2
    endloop
  endfacet
  facet normal -0 0 1
    outer loop
      vertex -0.291076 1.36941 6.2
      vertex -0.146339 -1.39233 6.2
      vertex -0.146339 1.39233 6.2
    endloop
  endfacet
  facet normal 0 0 1
    outer loop
      vertex -0.291076 1.36941 6.2
      vertex -0.291076 -1.36941 6.2
      vertex -0.146339 -1.39233 6.2
    endloop
  endfacet
  facet normal -0 0 1
    outer loop
      vertex -0.432623 1.33148 6.2
      vertex -0.291076 -1.36941 6.2
      vertex -0.291076 1.36941 6.2
    endloop
  endfacet
  facet normal 0 0 1
    outer loop
      vertex -0.432623 1.33148 6.2
      vertex -0.432623 -1.33148 6.2
      vertex -0.291076 -1.36941 6.2
    endloop
  endfacet
  facet normal -0 0 1
    outer loop
      vertex -0.56943 1.27896 6.2
      vertex -0.432623 -1.33148 6.2
      vertex -0.432623 1.33148 6.2
    endloop
  endfacet
  facet normal 0 0 1
    outer loop
      vertex -0.56943 1.27896 6.2
      vertex -0.56943 -1.27896 6.2
      vertex -0.432623 -1.33148 6.2
    endloop
  endfacet
  facet normal -0 0 1
    outer loop
      vertex -0.7 1.21243 6.2
      vertex -0.56943 -1.27896 6.2
      vertex -0.56943 1.27896 6.2
    endloop
  endfacet
  facet normal 0 0 1
    outer loop
      vertex -0.7 1.21243 6.2
      vertex -0.7 -1.21243 6.2
      vertex -0.56943 -1.27896 6.2
    endloop
  endfacet
  facet normal -0 0 1
    outer loop
      vertex -0.822899 1.13262 6.2
      vertex -0.7 -1.21243 6.2
      vertex -0.7 1.21243 6.2
    endloop
  endfacet
  facet normal 0 0 1
    outer loop
      vertex -0.822899 1.13262 6.2
      vertex -0.822899 -1.13262 6.2
      vertex -0.7 -1.21243 6.2
    endloop
  endfacet
  facet normal -0 0 1
    outer loop
      vertex -0.936783 1.0404 6.2
      vertex -0.822899 -1.13262 6.2
      vertex -0.822899 1.13262 6.2
    endloop
  endfacet
  facet normal 0 0 1
    outer loop
      vertex -0.936783 1.0404 6.2
      vertex -0.936783 -1.0404 6.2
      vertex -0.822899 -1.13262 6.2
    endloop
  endfacet
  facet normal -0 0 1
    outer loop
      vertex -1.0404 0.936783 6.2
      vertex -0.936783 -1.0404 6.2
      vertex -0.936783 1.0404 6.2
    endloop
  endfacet
  facet normal 0 0 1
    outer loop
      vertex -1.0404 0.936783 6.2
      vertex -1.0404 -0.936783 6.2
      vertex -0.936783 -1.0404 6.2
    endloop
  endfacet
  facet normal -0 0 1
    outer loop
      vertex -1.13262 0.822899 6.2
      vertex -1.0404 -0.936783 6.2
      vertex -1.0404 0.936783 6.2
    endloop
  endfacet
  facet normal 0 0 1
    outer loop
      vertex -1.13262 0.822899 6.2
      vertex -1.13262 -0.822899 6.2
      vertex -1.0404 -0.936783 6.2
    endloop
  endfacet
  facet normal -0 0 1
    outer loop
      vertex -1.21243 0.7 6.2
      vertex -1.13262 -0.822899 6.2
      vertex -1.13262 0.822899 6.2
    endloop
  endfacet
  facet normal 0 0 1
    outer loop
      vertex -1.21243 0.7 6.2
      vertex -1.21243 -0.7 6.2
      vertex -1.13262 -0.822899 6.2
    endloop
  endfacet
  facet normal -0 0 1
    outer loop
      vertex -1.27896 0.56943 6.2
      vertex -1.21243 -0.7 6.2
      vertex -1.21243 0.7 6.2
    endloop
  endfacet
  facet normal 0 0 1
    outer loop
      vertex -1.27896 0.56943 6.2
      vertex -1.27896 -0.56943 6.2
      vertex -1.21243 -0.7 6.2
    endloop
  endfacet
  facet normal -0 0 1
    outer loop
      vertex -1.33148 0.432623 6.2
      vertex -1.27896 -0.56943 6.2
      vertex -1.27896 0.56943 6.2
    endloop
  endfacet
  facet normal 0 0 1
    outer loop
      vertex -1.33148 0.432623 6.2
      vertex -1.33148 -0.432623 6.2
      vertex -1.27896 -0.56943 6.2
    endloop
  endfacet
  facet normal -0 0 1
    outer loop
      vertex -1.36941 0.291076 6.2
      vertex -1.33148 -0.432623 6.2
      vertex -1.33148 0.432623 6.2
    endloop
  endfacet
  facet normal 0 0 1
    outer loop
      vertex -1.36941 0.291076 6.2
      vertex -1.36941 -0.291076 6.2
      vertex -1.33148 -0.432623 6.2
    endloop
  endfacet
  facet normal -0 0 1
    outer loop
      vertex -1.39233 0.146339 6.2
      vertex -1.36941 -0.291076 6.2
      vertex -1.36941 0.291076 6.2
    endloop
  endfacet
  facet normal 0 0 1
    outer loop
      vertex -1.39233 0.146339 6.2
      vertex -1.39233 -0.146339 6.2
      vertex -1.36941 -0.291076 6.2
    endloop
  endfacet
  facet normal 0 -0 1
    outer loop
      vertex -1.39233 -0.146339 6.2
      vertex -1.39233 0.146339 6.2
      vertex -1.4 0 6.2
    endloop
  endfacet
  facet normal -0.987693 0.156407 0
    outer loop
      vertex -1.39233 0.146339 2.8
      vertex -1.36941 0.291076 6.2
      vertex -1.36941 0.291076 2.8
    endloop
  endfacet
  facet normal -0.987693 0.156407 0
    outer loop
      vertex -1.36941 0.291076 6.2
      vertex -1.39233 0.146339 2.8
      vertex -1.39233 0.146339 6.2
    endloop
  endfacet
  facet normal 0.987693 -0.156407 0
    outer loop
      vertex 1.36941 -0.291076 6.2
      vertex 1.39233 -0.146339 2.8
      vertex 1.39233 -0.146339 6.2
    endloop
  endfacet
  facet normal 0.987693 -0.156407 0
    outer loop
      vertex 1.39233 -0.146339 2.8
      vertex 1.36941 -0.291076 6.2
      vertex 1.36941 -0.291076 2.8
    endloop
  endfacet
  facet normal 0.965921 -0.258836 0
    outer loop
      vertex 1.33148 -0.432623 6.2
      vertex 1.36941 -0.291076 2.8
      vertex 1.36941 -0.291076 6.2
    endloop
  endfacet
  facet normal 0.965921 -0.258836 0
    outer loop
      vertex 1.36941 -0.291076 2.8
      vertex 1.33148 -0.432623 6.2
      vertex 1.33148 -0.432623 2.8
    endloop
  endfacet
  facet normal 0.358396 -0.93357 0
    outer loop
      vertex 0.432623 -1.33148 2.8
      vertex 0.56943 -1.27896 6.2
      vertex 0.432623 -1.33148 6.2
    endloop
  endfacet
  facet normal 0.358396 -0.93357 0
    outer loop
      vertex 0.56943 -1.27896 6.2
      vertex 0.432623 -1.33148 2.8
      vertex 0.56943 -1.27896 2.8
    endloop
  endfacet
  facet normal 0.707107 -0.707107 0
    outer loop
      vertex 0.936783 -1.0404 6.2
      vertex 1.0404 -0.936783 2.8
      vertex 1.0404 -0.936783 6.2
    endloop
  endfacet
  facet normal 0.707107 -0.707107 0
    outer loop
      vertex 1.0404 -0.936783 2.8
      vertex 0.936783 -1.0404 6.2
      vertex 0.936783 -1.0404 2.8
    endloop
  endfacet
  facet normal 0.544632 -0.838675 0
    outer loop
      vertex 0.7 -1.21243 2.8
      vertex 0.822899 -1.13262 6.2
      vertex 0.7 -1.21243 6.2
    endloop
  endfacet
  facet normal 0.544632 -0.838675 0
    outer loop
      vertex 0.822899 -1.13262 6.2
      vertex 0.7 -1.21243 2.8
      vertex 0.822899 -1.13262 2.8
    endloop
  endfacet
  facet normal 0.838675 -0.544632 0
    outer loop
      vertex 1.13262 -0.822899 6.2
      vertex 1.21243 -0.7 2.8
      vertex 1.21243 -0.7 6.2
    endloop
  endfacet
  facet normal 0.838675 -0.544632 0
    outer loop
      vertex 1.21243 -0.7 2.8
      vertex 1.13262 -0.822899 6.2
      vertex 1.13262 -0.822899 2.8
    endloop
  endfacet
  facet normal -0.258836 -0.965921 0
    outer loop
      vertex -0.432623 -1.33148 2.8
      vertex -0.291076 -1.36941 6.2
      vertex -0.432623 -1.33148 6.2
    endloop
  endfacet
  facet normal -0.258836 -0.965921 -0
    outer loop
      vertex -0.291076 -1.36941 6.2
      vertex -0.432623 -1.33148 2.8
      vertex -0.291076 -1.36941 2.8
    endloop
  endfacet
  facet normal -0.629314 -0.777151 0
    outer loop
      vertex -0.936783 -1.0404 2.8
      vertex -0.822899 -1.13262 6.2
      vertex -0.936783 -1.0404 6.2
    endloop
  endfacet
  facet normal -0.629314 -0.777151 -0
    outer loop
      vertex -0.822899 -1.13262 6.2
      vertex -0.936783 -1.0404 2.8
      vertex -0.822899 -1.13262 2.8
    endloop
  endfacet
  facet normal -0.965921 -0.258836 0
    outer loop
      vertex -1.33148 -0.432623 2.8
      vertex -1.36941 -0.291076 6.2
      vertex -1.36941 -0.291076 2.8
    endloop
  endfacet
  facet normal -0.965921 -0.258836 0
    outer loop
      vertex -1.36941 -0.291076 6.2
      vertex -1.33148 -0.432623 2.8
      vertex -1.33148 -0.432623 6.2
    endloop
  endfacet
  facet normal -0.891003 -0.453997 0
    outer loop
      vertex -1.21243 -0.7 2.8
      vertex -1.27896 -0.56943 6.2
      vertex -1.27896 -0.56943 2.8
    endloop
  endfacet
  facet normal -0.891003 -0.453997 0
    outer loop
      vertex -1.27896 -0.56943 6.2
      vertex -1.21243 -0.7 2.8
      vertex -1.21243 -0.7 6.2
    endloop
  endfacet
endsolid OpenSCAD_Model
